<svg id="Layer_1" data-name="Layer 1" xmlns="http://www.w3.org/2000/svg" viewBox="0 0 250 250"><path d="M204.06,184.11c-24.56,0-43.4-5.63-50.81-19.61a29,29,0,0,1-3.17-13.07A48.24,48.24,0,0,1,166,115.67c8.47-7.44,17.79-12.16,27.31-12.16,17.15,0,30.48,13.07,40.43,35.94a103.79,103.79,0,0,1,8.89,43.21c0,11.61-1.69,19.6-8.89,26.86-16.3,8.9-29.63,12.17-44.66,15.8-24.56,5.81-55.89,11.25-82.14,11.25-29,0-54-3.81-72.6-14C15.45,212.25,3.17,195.54,3.17,173.4a80.92,80.92,0,0,1,12.49-43.93l8.47,3.08c-4,10.35-6.14,19.61-6.14,27.6,0,16.88,11.22,31.4,27.94,40.12,17.36,8.89,40.85,11.61,67.31,11.61,24.77,0,48.69-3.08,72.19-8a189.1,189.1,0,0,0,28.15-8c5.3-1.82,14.61-5.27,14.61-8.53a9.33,9.33,0,0,0-1.06-4C219.51,184.11,211.68,184.11,204.06,184.11ZM175.69,45.78a185.26,185.26,0,0,1,25.4,19.42A77.25,77.25,0,0,1,183.52,83c-8.25-6.71-16.51-12.52-25-18.69C164.26,57.76,170,51.41,175.69,45.78Zm12.91,81.51c-14,0-25.4,9.26-25.4,16.16,0,14.7,27.1,19.24,60.54,19.06C219.51,145.26,205.75,127.29,188.6,127.29Z" style="fill:#a5eeab"/></svg>